<svg height="400" viewBox="0 0 300 300" width="400" xmlns="http://www.w3.org/2000/svg"><g fill="#950000"><path d="m186.7 6.4c-30.9 19.4-56.8 46.8-70.9 75.1-9 18.1-12.3 31.9-11.6 49.2.9 20.7 7.4 35 22.7 50.4 8.3 8.3 21.1 17.9 23.9 17.9 3.9 0 14.4-7.1 22.7-15.5 7.4-7.3 9.9-10.6 13.2-17.5 2.3-4.7 4.9-11.2 5.8-14.5 2.5-9.6 3-24.5 1.1-36-1.6-9.7-8-30.6-11-36.2-1.5-2.7-1.5-2.6-1.6 4.2-.1 9.8-2.4 21.7-5.2 26.7-4.5 8.2-12.3 11-18.8 6.5-5.9-3.9-7.5-8.6-7.4-21.2.1-9.2.5-12.3 2.8-19 6.8-20 22.7-47.8 41.3-72.2 1.4-1.8 2.3-3.3 2.1-3.3-.3 0-4.3 2.4-9.1 5.4z"/><path d="m40 186.4c10.2 6.9 21.1 16.7 27.9 25.1 20.6 25.6 22.1 49.5 5.5 86.2-.3.7 2.5-.4 6.3-2.3 9.3-4.7 23.3-9.1 37.2-11.6 15.7-2.9 50.7-3.1 65.1-.5 15.6 2.9 27.8 6.5 37.7 11.2 5.1 2.4 9.3 4.2 9.3 4.1 0-.2-1.3-3.3-3-6.9-9.9-21.8-11.4-41.9-4.4-59 5.5-13.8 21.1-32.4 37.2-44.7l7.2-5.5-13-.3c-7.2-.1-17 .1-21.8.6-8.4.9-9.2 1.2-21.1 8.2-23.3 13.6-40.6 19.3-59.1 19.2-20.2 0-37.4-5.8-62-20.7-5.7-3.4-11.2-6-14.2-6.5-2.8-.6-13.2-1-23.2-1h-18.1z"/></g></svg>